<mxfile host="app.diagrams.net" modified="2023-05-22T23:50:16.659Z" agent="Mozilla/5.0 (Windows NT 10.0; Win64; x64) AppleWebKit/537.36 (KHTML, like Gecko) Chrome/113.0.0.0 Safari/537.36" etag="sWzdT42QqMtTkVdxxPEN" version="21.3.2" type="google">
  <diagram name="Page-1" id="c4acf3e9-155e-7222-9cf6-157b1a14988f">
    <mxGraphModel grid="1" page="1" gridSize="10" guides="1" tooltips="1" connect="1" arrows="1" fold="1" pageScale="1" pageWidth="1400" pageHeight="1200" background="none" math="0" shadow="0">
      <root>
        <mxCell id="0" />
        <mxCell id="1" parent="0" />
        <mxCell id="17acba5748e5396b-1" value="*" style="shape=umlFrame;whiteSpace=wrap;html=1;rounded=0;shadow=0;comic=0;labelBackgroundColor=none;strokeWidth=1;fontFamily=Verdana;fontSize=10;align=center;" vertex="1" parent="1">
          <mxGeometry x="1400" width="1390" height="1190" as="geometry" />
        </mxCell>
        <mxCell id="0tEiglZcQvhpqYPTZPpU-35" style="edgeStyle=orthogonalEdgeStyle;rounded=0;orthogonalLoop=1;jettySize=auto;html=1;entryX=0;entryY=0.5;entryDx=0;entryDy=0;endArrow=none;endFill=0;" edge="1" parent="1" source="0tEiglZcQvhpqYPTZPpU-60" target="0tEiglZcQvhpqYPTZPpU-3">
          <mxGeometry relative="1" as="geometry">
            <Array as="points">
              <mxPoint x="2020" y="325" />
              <mxPoint x="2020" y="118" />
            </Array>
          </mxGeometry>
        </mxCell>
        <mxCell id="0tEiglZcQvhpqYPTZPpU-41" style="edgeStyle=orthogonalEdgeStyle;rounded=0;orthogonalLoop=1;jettySize=auto;html=1;entryX=0.5;entryY=0;entryDx=0;entryDy=0;endArrow=none;endFill=0;" edge="1" parent="1" source="17acba5748e5396b-20" target="w2l_0zOLGGP4IRcqjA-D-94">
          <mxGeometry relative="1" as="geometry">
            <Array as="points">
              <mxPoint x="1970" y="710" />
              <mxPoint x="2075" y="710" />
            </Array>
          </mxGeometry>
        </mxCell>
        <mxCell id="xOJ4kkMhBxfgzkIFG1wt-1" style="edgeStyle=orthogonalEdgeStyle;rounded=0;orthogonalLoop=1;jettySize=auto;html=1;endArrow=none;endFill=0;" edge="1" parent="1" source="17acba5748e5396b-20" target="w2l_0zOLGGP4IRcqjA-D-98">
          <mxGeometry relative="1" as="geometry">
            <Array as="points">
              <mxPoint x="1930" y="710" />
              <mxPoint x="1855" y="710" />
            </Array>
          </mxGeometry>
        </mxCell>
        <mxCell id="xOJ4kkMhBxfgzkIFG1wt-3" style="edgeStyle=orthogonalEdgeStyle;rounded=0;orthogonalLoop=1;jettySize=auto;html=1;endArrow=none;endFill=0;entryX=0.5;entryY=0;entryDx=0;entryDy=0;" edge="1" parent="1" source="17acba5748e5396b-20" target="w2l_0zOLGGP4IRcqjA-D-59">
          <mxGeometry relative="1" as="geometry">
            <Array as="points">
              <mxPoint x="1680" y="610" />
            </Array>
          </mxGeometry>
        </mxCell>
        <mxCell id="yFq702atTAQf6OKBw3pj-1" style="edgeStyle=orthogonalEdgeStyle;rounded=0;orthogonalLoop=1;jettySize=auto;html=1;endArrow=none;endFill=0;" edge="1" parent="1" source="17acba5748e5396b-20" target="xOJ4kkMhBxfgzkIFG1wt-12">
          <mxGeometry relative="1" as="geometry">
            <Array as="points">
              <mxPoint x="1630" y="579" />
              <mxPoint x="1630" y="579" />
            </Array>
          </mxGeometry>
        </mxCell>
        <mxCell id="17acba5748e5396b-20" value="Usuario" style="swimlane;html=1;fontStyle=0;childLayout=stackLayout;horizontal=1;startSize=26;fillColor=none;horizontalStack=0;resizeParent=1;resizeLast=0;collapsible=1;marginBottom=0;swimlaneFillColor=#ffffff;rounded=0;shadow=0;comic=0;labelBackgroundColor=none;strokeWidth=1;fontFamily=Verdana;fontSize=10;align=center;" vertex="1" parent="1">
          <mxGeometry x="1810" y="475" width="280" height="208" as="geometry" />
        </mxCell>
        <mxCell id="ZxEYRgGfEQxioej7QGIg-110" value="- idUsuario: int" style="text;html=1;strokeColor=none;fillColor=none;align=left;verticalAlign=top;spacingLeft=4;spacingRight=4;whiteSpace=wrap;overflow=hidden;rotatable=0;points=[[0,0.5],[1,0.5]];portConstraint=eastwest;" vertex="1" parent="17acba5748e5396b-20">
          <mxGeometry y="26" width="280" height="26" as="geometry" />
        </mxCell>
        <mxCell id="0tEiglZcQvhpqYPTZPpU-79" value="- pessoa: Pessoa" style="text;html=1;strokeColor=none;fillColor=none;align=left;verticalAlign=top;spacingLeft=4;spacingRight=4;whiteSpace=wrap;overflow=hidden;rotatable=0;points=[[0,0.5],[1,0.5]];portConstraint=eastwest;" vertex="1" parent="17acba5748e5396b-20">
          <mxGeometry y="52" width="280" height="26" as="geometry" />
        </mxCell>
        <mxCell id="17acba5748e5396b-21" value="- nomeUsuario: String" style="text;html=1;strokeColor=none;fillColor=none;align=left;verticalAlign=top;spacingLeft=4;spacingRight=4;whiteSpace=wrap;overflow=hidden;rotatable=0;points=[[0,0.5],[1,0.5]];portConstraint=eastwest;" vertex="1" parent="17acba5748e5396b-20">
          <mxGeometry y="78" width="280" height="26" as="geometry" />
        </mxCell>
        <mxCell id="ZxEYRgGfEQxioej7QGIg-115" value="- senhaProvisoria: String" style="text;html=1;strokeColor=none;fillColor=none;align=left;verticalAlign=top;spacingLeft=4;spacingRight=4;whiteSpace=wrap;overflow=hidden;rotatable=0;points=[[0,0.5],[1,0.5]];portConstraint=eastwest;" vertex="1" parent="17acba5748e5396b-20">
          <mxGeometry y="104" width="280" height="26" as="geometry" />
        </mxCell>
        <mxCell id="ZxEYRgGfEQxioej7QGIg-114" value="- senha: String" style="text;html=1;strokeColor=none;fillColor=none;align=left;verticalAlign=top;spacingLeft=4;spacingRight=4;whiteSpace=wrap;overflow=hidden;rotatable=0;points=[[0,0.5],[1,0.5]];portConstraint=eastwest;" vertex="1" parent="17acba5748e5396b-20">
          <mxGeometry y="130" width="280" height="26" as="geometry" />
        </mxCell>
        <mxCell id="w2l_0zOLGGP4IRcqjA-D-53" value="- tipo: Enum" style="text;html=1;strokeColor=none;fillColor=none;align=left;verticalAlign=top;spacingLeft=4;spacingRight=4;whiteSpace=wrap;overflow=hidden;rotatable=0;points=[[0,0.5],[1,0.5]];portConstraint=eastwest;" vertex="1" parent="17acba5748e5396b-20">
          <mxGeometry y="156" width="280" height="26" as="geometry" />
        </mxCell>
        <mxCell id="0tEiglZcQvhpqYPTZPpU-72" value="- criadoEm: Datetime" style="text;html=1;strokeColor=none;fillColor=none;align=left;verticalAlign=top;spacingLeft=4;spacingRight=4;whiteSpace=wrap;overflow=hidden;rotatable=0;points=[[0,0.5],[1,0.5]];portConstraint=eastwest;" vertex="1" parent="17acba5748e5396b-20">
          <mxGeometry y="182" width="280" height="26" as="geometry" />
        </mxCell>
        <mxCell id="0tEiglZcQvhpqYPTZPpU-34" style="edgeStyle=orthogonalEdgeStyle;rounded=0;orthogonalLoop=1;jettySize=auto;html=1;endArrow=none;endFill=0;" edge="1" parent="1" source="w2l_0zOLGGP4IRcqjA-D-1" target="17acba5748e5396b-20">
          <mxGeometry relative="1" as="geometry">
            <mxPoint x="2130" y="590" as="targetPoint" />
            <Array as="points">
              <mxPoint x="2230" y="560" />
            </Array>
          </mxGeometry>
        </mxCell>
        <mxCell id="w2l_0zOLGGP4IRcqjA-D-1" value="Matricula" style="swimlane;html=1;fontStyle=0;childLayout=stackLayout;horizontal=1;startSize=26;fillColor=none;horizontalStack=0;resizeParent=1;resizeLast=0;collapsible=1;marginBottom=0;swimlaneFillColor=#ffffff;rounded=0;shadow=0;comic=0;labelBackgroundColor=none;strokeWidth=1;fontFamily=Verdana;fontSize=10;align=center;" vertex="1" parent="1">
          <mxGeometry x="2090" y="245.75" width="280" height="158.5" as="geometry" />
        </mxCell>
        <mxCell id="w2l_0zOLGGP4IRcqjA-D-8" value="- usuario: Usuario" style="text;html=1;strokeColor=none;fillColor=none;align=left;verticalAlign=top;spacingLeft=4;spacingRight=4;whiteSpace=wrap;overflow=hidden;rotatable=0;points=[[0,0.5],[1,0.5]];portConstraint=eastwest;" vertex="1" parent="w2l_0zOLGGP4IRcqjA-D-1">
          <mxGeometry y="26" width="280" height="26" as="geometry" />
        </mxCell>
        <mxCell id="w2l_0zOLGGP4IRcqjA-D-9" value="- plano: Plano" style="text;html=1;strokeColor=none;fillColor=none;align=left;verticalAlign=top;spacingLeft=4;spacingRight=4;whiteSpace=wrap;overflow=hidden;rotatable=0;points=[[0,0.5],[1,0.5]];portConstraint=eastwest;" vertex="1" parent="w2l_0zOLGGP4IRcqjA-D-1">
          <mxGeometry y="52" width="280" height="26" as="geometry" />
        </mxCell>
        <mxCell id="0tEiglZcQvhpqYPTZPpU-33" value="- status: String" style="text;html=1;strokeColor=none;fillColor=none;align=left;verticalAlign=top;spacingLeft=4;spacingRight=4;whiteSpace=wrap;overflow=hidden;rotatable=0;points=[[0,0.5],[1,0.5]];portConstraint=eastwest;" vertex="1" parent="w2l_0zOLGGP4IRcqjA-D-1">
          <mxGeometry y="78" width="280" height="26" as="geometry" />
        </mxCell>
        <mxCell id="0tEiglZcQvhpqYPTZPpU-16" value="- dataInicio: Date" style="text;html=1;strokeColor=none;fillColor=none;align=left;verticalAlign=top;spacingLeft=4;spacingRight=4;whiteSpace=wrap;overflow=hidden;rotatable=0;points=[[0,0.5],[1,0.5]];portConstraint=eastwest;" vertex="1" parent="w2l_0zOLGGP4IRcqjA-D-1">
          <mxGeometry y="104" width="280" height="26" as="geometry" />
        </mxCell>
        <mxCell id="0tEiglZcQvhpqYPTZPpU-31" value="- dataFim: Date" style="text;html=1;strokeColor=none;fillColor=none;align=left;verticalAlign=top;spacingLeft=4;spacingRight=4;whiteSpace=wrap;overflow=hidden;rotatable=0;points=[[0,0.5],[1,0.5]];portConstraint=eastwest;" vertex="1" parent="w2l_0zOLGGP4IRcqjA-D-1">
          <mxGeometry y="130" width="280" height="26" as="geometry" />
        </mxCell>
        <mxCell id="0tEiglZcQvhpqYPTZPpU-102" style="edgeStyle=orthogonalEdgeStyle;rounded=0;orthogonalLoop=1;jettySize=auto;html=1;fontSize=22;fontColor=#FF0A0A;endArrow=none;endFill=0;" edge="1" parent="1" source="w2l_0zOLGGP4IRcqjA-D-10" target="w2l_0zOLGGP4IRcqjA-D-1">
          <mxGeometry relative="1" as="geometry" />
        </mxCell>
        <mxCell id="w2l_0zOLGGP4IRcqjA-D-10" value="Plano" style="swimlane;html=1;fontStyle=0;childLayout=stackLayout;horizontal=1;startSize=26;fillColor=none;horizontalStack=0;resizeParent=1;resizeLast=0;collapsible=1;marginBottom=0;swimlaneFillColor=#ffffff;rounded=0;shadow=0;comic=0;labelBackgroundColor=none;strokeWidth=1;fontFamily=Verdana;fontSize=10;align=center;" vertex="1" parent="1">
          <mxGeometry x="2470" y="268.75" width="280" height="112.5" as="geometry" />
        </mxCell>
        <mxCell id="w2l_0zOLGGP4IRcqjA-D-11" value="- nome: String" style="text;html=1;strokeColor=none;fillColor=none;align=left;verticalAlign=top;spacingLeft=4;spacingRight=4;whiteSpace=wrap;overflow=hidden;rotatable=0;points=[[0,0.5],[1,0.5]];portConstraint=eastwest;" vertex="1" parent="w2l_0zOLGGP4IRcqjA-D-10">
          <mxGeometry y="26" width="280" height="26" as="geometry" />
        </mxCell>
        <mxCell id="w2l_0zOLGGP4IRcqjA-D-89" value="- descricao: String" style="text;html=1;strokeColor=none;fillColor=none;align=left;verticalAlign=top;spacingLeft=4;spacingRight=4;whiteSpace=wrap;overflow=hidden;rotatable=0;points=[[0,0.5],[1,0.5]];portConstraint=eastwest;" vertex="1" parent="w2l_0zOLGGP4IRcqjA-D-10">
          <mxGeometry y="52" width="280" height="26" as="geometry" />
        </mxCell>
        <mxCell id="0tEiglZcQvhpqYPTZPpU-28" value="- atividadesContratadas: List&amp;lt;Atividade&amp;gt;" style="text;html=1;strokeColor=none;fillColor=none;align=left;verticalAlign=top;spacingLeft=4;spacingRight=4;whiteSpace=wrap;overflow=hidden;rotatable=0;points=[[0,0.5],[1,0.5]];portConstraint=eastwest;" vertex="1" parent="w2l_0zOLGGP4IRcqjA-D-10">
          <mxGeometry y="78" width="280" height="26" as="geometry" />
        </mxCell>
        <mxCell id="0tEiglZcQvhpqYPTZPpU-95" style="edgeStyle=orthogonalEdgeStyle;rounded=0;orthogonalLoop=1;jettySize=auto;html=1;endArrow=none;endFill=0;exitX=0;exitY=0.5;exitDx=0;exitDy=0;" edge="1" parent="1" source="CHSc1xZSDDK0dKRzCx47-1" target="w2l_0zOLGGP4IRcqjA-D-25">
          <mxGeometry relative="1" as="geometry">
            <Array as="points">
              <mxPoint x="2430" y="807.75" />
            </Array>
          </mxGeometry>
        </mxCell>
        <mxCell id="0tEiglZcQvhpqYPTZPpU-101" style="edgeStyle=orthogonalEdgeStyle;rounded=0;orthogonalLoop=1;jettySize=auto;html=1;entryX=0.5;entryY=1;entryDx=0;entryDy=0;fontSize=22;fontColor=#FF0A0A;endArrow=none;endFill=0;" edge="1" parent="1" source="w2l_0zOLGGP4IRcqjA-D-21" target="w2l_0zOLGGP4IRcqjA-D-10">
          <mxGeometry relative="1" as="geometry" />
        </mxCell>
        <mxCell id="w2l_0zOLGGP4IRcqjA-D-21" value="Atividade" style="swimlane;html=1;fontStyle=0;childLayout=stackLayout;horizontal=1;startSize=26;fillColor=none;horizontalStack=0;resizeParent=1;resizeLast=0;collapsible=1;marginBottom=0;swimlaneFillColor=#ffffff;rounded=0;shadow=0;comic=0;labelBackgroundColor=none;strokeWidth=1;fontFamily=Verdana;fontSize=10;align=center;" vertex="1" parent="1">
          <mxGeometry x="2540" y="768.75" width="140" height="87.5" as="geometry" />
        </mxCell>
        <mxCell id="CHSc1xZSDDK0dKRzCx47-1" value="- nome: String" style="text;html=1;strokeColor=none;fillColor=none;align=left;verticalAlign=top;spacingLeft=4;spacingRight=4;whiteSpace=wrap;overflow=hidden;rotatable=0;points=[[0,0.5],[1,0.5]];portConstraint=eastwest;" vertex="1" parent="w2l_0zOLGGP4IRcqjA-D-21">
          <mxGeometry y="26" width="140" height="26" as="geometry" />
        </mxCell>
        <mxCell id="CHSc1xZSDDK0dKRzCx47-2" value="- tipo: Enum" style="text;html=1;strokeColor=none;fillColor=none;align=left;verticalAlign=top;spacingLeft=4;spacingRight=4;whiteSpace=wrap;overflow=hidden;rotatable=0;points=[[0,0.5],[1,0.5]];portConstraint=eastwest;" vertex="1" parent="w2l_0zOLGGP4IRcqjA-D-21">
          <mxGeometry y="52" width="140" height="26" as="geometry" />
        </mxCell>
        <mxCell id="0tEiglZcQvhpqYPTZPpU-42" style="edgeStyle=orthogonalEdgeStyle;rounded=0;orthogonalLoop=1;jettySize=auto;html=1;endArrow=none;endFill=0;" edge="1" parent="1" source="w2l_0zOLGGP4IRcqjA-D-25" target="w2l_0zOLGGP4IRcqjA-D-30">
          <mxGeometry relative="1" as="geometry" />
        </mxCell>
        <mxCell id="0tEiglZcQvhpqYPTZPpU-46" style="edgeStyle=orthogonalEdgeStyle;rounded=0;orthogonalLoop=1;jettySize=auto;html=1;endArrow=none;endFill=0;" edge="1" parent="1" source="w2l_0zOLGGP4IRcqjA-D-25" target="w2l_0zOLGGP4IRcqjA-D-94">
          <mxGeometry relative="1" as="geometry">
            <mxPoint x="1880" y="949" as="targetPoint" />
            <Array as="points">
              <mxPoint x="2400" y="795" />
            </Array>
          </mxGeometry>
        </mxCell>
        <mxCell id="w2l_0zOLGGP4IRcqjA-D-25" value="AtividadeAgenda" style="swimlane;html=1;fontStyle=0;childLayout=stackLayout;horizontal=1;startSize=26;fillColor=none;horizontalStack=0;resizeParent=1;resizeLast=0;collapsible=1;marginBottom=0;swimlaneFillColor=#ffffff;rounded=0;shadow=0;comic=0;labelBackgroundColor=none;strokeWidth=1;fontFamily=Verdana;fontSize=10;align=center;" vertex="1" parent="1">
          <mxGeometry x="2360" y="625.75" width="140" height="130" as="geometry" />
        </mxCell>
        <mxCell id="0tEiglZcQvhpqYPTZPpU-29" value="- atividade: Atividade" style="text;html=1;strokeColor=none;fillColor=none;align=left;verticalAlign=top;spacingLeft=4;spacingRight=4;whiteSpace=wrap;overflow=hidden;rotatable=0;points=[[0,0.5],[1,0.5]];portConstraint=eastwest;" vertex="1" parent="w2l_0zOLGGP4IRcqjA-D-25">
          <mxGeometry y="26" width="140" height="26" as="geometry" />
        </mxCell>
        <mxCell id="yFq702atTAQf6OKBw3pj-76" value="- professor: Usuario" style="text;html=1;strokeColor=none;fillColor=none;align=left;verticalAlign=top;spacingLeft=4;spacingRight=4;whiteSpace=wrap;overflow=hidden;rotatable=0;points=[[0,0.5],[1,0.5]];portConstraint=eastwest;" vertex="1" parent="w2l_0zOLGGP4IRcqjA-D-25">
          <mxGeometry y="52" width="140" height="26" as="geometry" />
        </mxCell>
        <mxCell id="w2l_0zOLGGP4IRcqjA-D-28" value="- data: Date" style="text;html=1;strokeColor=none;fillColor=none;align=left;verticalAlign=top;spacingLeft=4;spacingRight=4;whiteSpace=wrap;overflow=hidden;rotatable=0;points=[[0,0.5],[1,0.5]];portConstraint=eastwest;" vertex="1" parent="w2l_0zOLGGP4IRcqjA-D-25">
          <mxGeometry y="78" width="140" height="26" as="geometry" />
        </mxCell>
        <mxCell id="0tEiglZcQvhpqYPTZPpU-26" value="- hora: String" style="text;html=1;strokeColor=none;fillColor=none;align=left;verticalAlign=top;spacingLeft=4;spacingRight=4;whiteSpace=wrap;overflow=hidden;rotatable=0;points=[[0,0.5],[1,0.5]];portConstraint=eastwest;" vertex="1" parent="w2l_0zOLGGP4IRcqjA-D-25">
          <mxGeometry y="104" width="140" height="26" as="geometry" />
        </mxCell>
        <mxCell id="yFq702atTAQf6OKBw3pj-75" style="edgeStyle=orthogonalEdgeStyle;rounded=0;orthogonalLoop=1;jettySize=auto;html=1;entryX=0.999;entryY=0.841;entryDx=0;entryDy=0;entryPerimeter=0;endArrow=none;endFill=0;" edge="1" parent="1" source="w2l_0zOLGGP4IRcqjA-D-30" target="ZxEYRgGfEQxioej7QGIg-115">
          <mxGeometry relative="1" as="geometry">
            <Array as="points">
              <mxPoint x="2260" y="480" />
              <mxPoint x="2260" y="601" />
            </Array>
          </mxGeometry>
        </mxCell>
        <mxCell id="w2l_0zOLGGP4IRcqjA-D-30" value="Agenda" style="swimlane;html=1;fontStyle=0;childLayout=stackLayout;horizontal=1;startSize=26;fillColor=none;horizontalStack=0;resizeParent=1;resizeLast=0;collapsible=1;marginBottom=0;swimlaneFillColor=#ffffff;rounded=0;shadow=0;comic=0;labelBackgroundColor=none;strokeWidth=1;fontFamily=Verdana;fontSize=10;align=center;" vertex="1" parent="1">
          <mxGeometry x="2290" y="437.75" width="280" height="85" as="geometry" />
        </mxCell>
        <mxCell id="w2l_0zOLGGP4IRcqjA-D-31" value="- usuario: Usuario" style="text;html=1;strokeColor=none;fillColor=none;align=left;verticalAlign=top;spacingLeft=4;spacingRight=4;whiteSpace=wrap;overflow=hidden;rotatable=0;points=[[0,0.5],[1,0.5]];portConstraint=eastwest;" vertex="1" parent="w2l_0zOLGGP4IRcqjA-D-30">
          <mxGeometry y="26" width="280" height="26" as="geometry" />
        </mxCell>
        <mxCell id="w2l_0zOLGGP4IRcqjA-D-32" value="- atividades: List&amp;lt;AtividadeAgendada&amp;gt;" style="text;html=1;strokeColor=none;fillColor=none;align=left;verticalAlign=top;spacingLeft=4;spacingRight=4;whiteSpace=wrap;overflow=hidden;rotatable=0;points=[[0,0.5],[1,0.5]];portConstraint=eastwest;" vertex="1" parent="w2l_0zOLGGP4IRcqjA-D-30">
          <mxGeometry y="52" width="280" height="26" as="geometry" />
        </mxCell>
        <mxCell id="0tEiglZcQvhpqYPTZPpU-100" style="edgeStyle=orthogonalEdgeStyle;rounded=0;orthogonalLoop=1;jettySize=auto;html=1;entryX=0;entryY=0.5;entryDx=0;entryDy=0;fontSize=22;fontColor=#FF0A0A;endArrow=none;endFill=0;" edge="1" parent="1" source="w2l_0zOLGGP4IRcqjA-D-38" target="0tEiglZcQvhpqYPTZPpU-50">
          <mxGeometry relative="1" as="geometry">
            <Array as="points">
              <mxPoint x="2520" y="898.75" />
              <mxPoint x="2610" y="898.75" />
            </Array>
          </mxGeometry>
        </mxCell>
        <mxCell id="w2l_0zOLGGP4IRcqjA-D-38" value="AtividadeMusculacao" style="swimlane;html=1;fontStyle=0;childLayout=stackLayout;horizontal=1;startSize=26;fillColor=none;horizontalStack=0;resizeParent=1;resizeLast=0;collapsible=1;marginBottom=0;swimlaneFillColor=#ffffff;rounded=0;shadow=0;comic=0;labelBackgroundColor=none;strokeWidth=1;fontFamily=Verdana;fontSize=10;align=center;" vertex="1" parent="1">
          <mxGeometry x="2450" y="926.75" width="140" height="60" as="geometry" />
        </mxCell>
        <mxCell id="w2l_0zOLGGP4IRcqjA-D-40" value="- equipamento: String" style="text;html=1;strokeColor=none;fillColor=none;align=left;verticalAlign=top;spacingLeft=4;spacingRight=4;whiteSpace=wrap;overflow=hidden;rotatable=0;points=[[0,0.5],[1,0.5]];portConstraint=eastwest;" vertex="1" parent="w2l_0zOLGGP4IRcqjA-D-38">
          <mxGeometry y="26" width="140" height="26" as="geometry" />
        </mxCell>
        <mxCell id="0tEiglZcQvhpqYPTZPpU-99" style="edgeStyle=orthogonalEdgeStyle;rounded=0;orthogonalLoop=1;jettySize=auto;html=1;entryX=0;entryY=0.5;entryDx=0;entryDy=0;fontSize=22;fontColor=#FF0A0A;endArrow=none;endFill=0;" edge="1" parent="1" source="w2l_0zOLGGP4IRcqjA-D-41" target="0tEiglZcQvhpqYPTZPpU-50">
          <mxGeometry relative="1" as="geometry">
            <Array as="points">
              <mxPoint x="2700" y="898.75" />
              <mxPoint x="2610" y="898.75" />
            </Array>
          </mxGeometry>
        </mxCell>
        <mxCell id="w2l_0zOLGGP4IRcqjA-D-41" value="AtividadeGinastica" style="swimlane;html=1;fontStyle=0;childLayout=stackLayout;horizontal=1;startSize=26;fillColor=none;horizontalStack=0;resizeParent=1;resizeLast=0;collapsible=1;marginBottom=0;swimlaneFillColor=#ffffff;rounded=0;shadow=0;comic=0;labelBackgroundColor=none;strokeWidth=1;fontFamily=Verdana;fontSize=10;align=center;" vertex="1" parent="1">
          <mxGeometry x="2630" y="926.75" width="140" height="83.25" as="geometry" />
        </mxCell>
        <mxCell id="w2l_0zOLGGP4IRcqjA-D-43" value="- sala: String" style="text;html=1;strokeColor=none;fillColor=none;align=left;verticalAlign=top;spacingLeft=4;spacingRight=4;whiteSpace=wrap;overflow=hidden;rotatable=0;points=[[0,0.5],[1,0.5]];portConstraint=eastwest;" vertex="1" parent="w2l_0zOLGGP4IRcqjA-D-41">
          <mxGeometry y="26" width="140" height="26" as="geometry" />
        </mxCell>
        <mxCell id="w2l_0zOLGGP4IRcqjA-D-57" value="- capacidade: int" style="text;html=1;strokeColor=none;fillColor=none;align=left;verticalAlign=top;spacingLeft=4;spacingRight=4;whiteSpace=wrap;overflow=hidden;rotatable=0;points=[[0,0.5],[1,0.5]];portConstraint=eastwest;" vertex="1" parent="w2l_0zOLGGP4IRcqjA-D-41">
          <mxGeometry y="52" width="140" height="26" as="geometry" />
        </mxCell>
        <mxCell id="xOJ4kkMhBxfgzkIFG1wt-4" value="" style="edgeStyle=orthogonalEdgeStyle;rounded=0;orthogonalLoop=1;jettySize=auto;html=1;endArrow=none;endFill=0;entryX=0.5;entryY=0;entryDx=0;entryDy=0;" edge="1" parent="1" source="w2l_0zOLGGP4IRcqjA-D-59" target="w2l_0zOLGGP4IRcqjA-D-70">
          <mxGeometry relative="1" as="geometry" />
        </mxCell>
        <mxCell id="w2l_0zOLGGP4IRcqjA-D-59" value="Relatorio" style="swimlane;html=1;fontStyle=0;childLayout=stackLayout;horizontal=1;startSize=26;fillColor=none;horizontalStack=0;resizeParent=1;resizeLast=0;collapsible=1;marginBottom=0;swimlaneFillColor=#ffffff;rounded=0;shadow=0;comic=0;labelBackgroundColor=none;strokeWidth=1;fontFamily=Verdana;fontSize=10;align=center;" vertex="1" parent="1">
          <mxGeometry x="1600" y="736" width="160" height="133.5" as="geometry" />
        </mxCell>
        <mxCell id="w2l_0zOLGGP4IRcqjA-D-84" value="- usuario: Usuario" style="text;html=1;strokeColor=none;fillColor=none;align=left;verticalAlign=top;spacingLeft=4;spacingRight=4;whiteSpace=wrap;overflow=hidden;rotatable=0;points=[[0,0.5],[1,0.5]];portConstraint=eastwest;" vertex="1" parent="w2l_0zOLGGP4IRcqjA-D-59">
          <mxGeometry y="26" width="160" height="26" as="geometry" />
        </mxCell>
        <mxCell id="w2l_0zOLGGP4IRcqjA-D-61" value="- medidas: List&amp;lt;Medida&amp;gt;" style="text;html=1;strokeColor=none;fillColor=none;align=left;verticalAlign=top;spacingLeft=4;spacingRight=4;whiteSpace=wrap;overflow=hidden;rotatable=0;points=[[0,0.5],[1,0.5]];portConstraint=eastwest;" vertex="1" parent="w2l_0zOLGGP4IRcqjA-D-59">
          <mxGeometry y="52" width="160" height="26" as="geometry" />
        </mxCell>
        <mxCell id="w2l_0zOLGGP4IRcqjA-D-62" value="- tipo: Enum" style="text;html=1;strokeColor=none;fillColor=none;align=left;verticalAlign=top;spacingLeft=4;spacingRight=4;whiteSpace=wrap;overflow=hidden;rotatable=0;points=[[0,0.5],[1,0.5]];portConstraint=eastwest;" vertex="1" parent="w2l_0zOLGGP4IRcqjA-D-59">
          <mxGeometry y="78" width="160" height="26" as="geometry" />
        </mxCell>
        <mxCell id="w2l_0zOLGGP4IRcqjA-D-82" value="- data: Date" style="text;html=1;strokeColor=none;fillColor=none;align=left;verticalAlign=top;spacingLeft=4;spacingRight=4;whiteSpace=wrap;overflow=hidden;rotatable=0;points=[[0,0.5],[1,0.5]];portConstraint=eastwest;" vertex="1" parent="w2l_0zOLGGP4IRcqjA-D-59">
          <mxGeometry y="104" width="160" height="26" as="geometry" />
        </mxCell>
        <mxCell id="0tEiglZcQvhpqYPTZPpU-36" style="edgeStyle=orthogonalEdgeStyle;rounded=0;orthogonalLoop=1;jettySize=auto;html=1;entryX=0;entryY=0.5;entryDx=0;entryDy=0;endArrow=none;endFill=0;" edge="1" parent="1" source="w2l_0zOLGGP4IRcqjA-D-70" target="CHSc1xZSDDK0dKRzCx47-6">
          <mxGeometry relative="1" as="geometry" />
        </mxCell>
        <mxCell id="xOJ4kkMhBxfgzkIFG1wt-2" style="edgeStyle=orthogonalEdgeStyle;rounded=0;orthogonalLoop=1;jettySize=auto;html=1;endArrow=none;endFill=0;" edge="1" parent="1" source="w2l_0zOLGGP4IRcqjA-D-70" target="w2l_0zOLGGP4IRcqjA-D-73">
          <mxGeometry relative="1" as="geometry" />
        </mxCell>
        <mxCell id="w2l_0zOLGGP4IRcqjA-D-70" value="Medida" style="swimlane;html=1;fontStyle=0;childLayout=stackLayout;horizontal=1;startSize=26;fillColor=none;horizontalStack=0;resizeParent=1;resizeLast=0;collapsible=1;marginBottom=0;swimlaneFillColor=#ffffff;rounded=0;shadow=0;comic=0;labelBackgroundColor=none;strokeWidth=1;fontFamily=Verdana;fontSize=10;align=center;" vertex="1" parent="1">
          <mxGeometry x="1610" y="920" width="140" height="116" as="geometry" />
        </mxCell>
        <mxCell id="w2l_0zOLGGP4IRcqjA-D-83" value="- relatorio: Relatorio" style="text;html=1;strokeColor=none;fillColor=none;align=left;verticalAlign=top;spacingLeft=4;spacingRight=4;whiteSpace=wrap;overflow=hidden;rotatable=0;points=[[0,0.5],[1,0.5]];portConstraint=eastwest;" vertex="1" parent="w2l_0zOLGGP4IRcqjA-D-70">
          <mxGeometry y="26" width="140" height="26" as="geometry" />
        </mxCell>
        <mxCell id="w2l_0zOLGGP4IRcqjA-D-92" value="- fenomeno: Fenomeno" style="text;html=1;strokeColor=none;fillColor=none;align=left;verticalAlign=top;spacingLeft=4;spacingRight=4;whiteSpace=wrap;overflow=hidden;rotatable=0;points=[[0,0.5],[1,0.5]];portConstraint=eastwest;" vertex="1" parent="w2l_0zOLGGP4IRcqjA-D-70">
          <mxGeometry y="52" width="140" height="26" as="geometry" />
        </mxCell>
        <mxCell id="w2l_0zOLGGP4IRcqjA-D-93" value="- valor: Valor" style="text;html=1;strokeColor=none;fillColor=none;align=left;verticalAlign=top;spacingLeft=4;spacingRight=4;whiteSpace=wrap;overflow=hidden;rotatable=0;points=[[0,0.5],[1,0.5]];portConstraint=eastwest;" vertex="1" parent="w2l_0zOLGGP4IRcqjA-D-70">
          <mxGeometry y="78" width="140" height="26" as="geometry" />
        </mxCell>
        <mxCell id="w2l_0zOLGGP4IRcqjA-D-73" value="Valor" style="swimlane;html=1;fontStyle=0;childLayout=stackLayout;horizontal=1;startSize=26;fillColor=none;horizontalStack=0;resizeParent=1;resizeLast=0;collapsible=1;marginBottom=0;swimlaneFillColor=#ffffff;rounded=0;shadow=0;comic=0;labelBackgroundColor=none;strokeWidth=1;fontFamily=Verdana;fontSize=10;align=center;" vertex="1" parent="1">
          <mxGeometry x="1410" y="935.5" width="140" height="85" as="geometry" />
        </mxCell>
        <mxCell id="w2l_0zOLGGP4IRcqjA-D-74" value="- valor: float" style="text;html=1;strokeColor=none;fillColor=none;align=left;verticalAlign=top;spacingLeft=4;spacingRight=4;whiteSpace=wrap;overflow=hidden;rotatable=0;points=[[0,0.5],[1,0.5]];portConstraint=eastwest;" vertex="1" parent="w2l_0zOLGGP4IRcqjA-D-73">
          <mxGeometry y="26" width="140" height="26" as="geometry" />
        </mxCell>
        <mxCell id="w2l_0zOLGGP4IRcqjA-D-75" value="- unidade: Unidade" style="text;html=1;strokeColor=none;fillColor=none;align=left;verticalAlign=top;spacingLeft=4;spacingRight=4;whiteSpace=wrap;overflow=hidden;rotatable=0;points=[[0,0.5],[1,0.5]];portConstraint=eastwest;" vertex="1" parent="w2l_0zOLGGP4IRcqjA-D-73">
          <mxGeometry y="52" width="140" height="26" as="geometry" />
        </mxCell>
        <mxCell id="w2l_0zOLGGP4IRcqjA-D-85" value="Fenomeno" style="swimlane;html=1;fontStyle=0;childLayout=stackLayout;horizontal=1;startSize=26;fillColor=none;horizontalStack=0;resizeParent=1;resizeLast=0;collapsible=1;marginBottom=0;swimlaneFillColor=#ffffff;rounded=0;shadow=0;comic=0;labelBackgroundColor=none;strokeWidth=1;fontFamily=Verdana;fontSize=10;align=center;" vertex="1" parent="1">
          <mxGeometry x="1870" y="939" width="160" height="78" as="geometry" />
        </mxCell>
        <mxCell id="CHSc1xZSDDK0dKRzCx47-6" value="- nome: String" style="text;html=1;strokeColor=none;fillColor=none;align=left;verticalAlign=top;spacingLeft=4;spacingRight=4;whiteSpace=wrap;overflow=hidden;rotatable=0;points=[[0,0.5],[1,0.5]];portConstraint=eastwest;" vertex="1" parent="w2l_0zOLGGP4IRcqjA-D-85">
          <mxGeometry y="26" width="160" height="26" as="geometry" />
        </mxCell>
        <mxCell id="0tEiglZcQvhpqYPTZPpU-53" value="- tipo: Frequencia/Avaliacao" style="text;html=1;strokeColor=none;fillColor=none;align=left;verticalAlign=top;spacingLeft=4;spacingRight=4;whiteSpace=wrap;overflow=hidden;rotatable=0;points=[[0,0.5],[1,0.5]];portConstraint=eastwest;" vertex="1" parent="w2l_0zOLGGP4IRcqjA-D-85">
          <mxGeometry y="52" width="160" height="26" as="geometry" />
        </mxCell>
        <mxCell id="w2l_0zOLGGP4IRcqjA-D-94" value="Avaliação" style="swimlane;html=1;fontStyle=0;childLayout=stackLayout;horizontal=1;startSize=26;fillColor=none;horizontalStack=0;resizeParent=1;resizeLast=0;collapsible=1;marginBottom=0;swimlaneFillColor=#ffffff;rounded=0;shadow=0;comic=0;labelBackgroundColor=none;strokeWidth=1;fontFamily=Verdana;fontSize=10;align=center;" vertex="1" parent="1">
          <mxGeometry x="1970" y="736" width="210" height="156" as="geometry" />
        </mxCell>
        <mxCell id="w2l_0zOLGGP4IRcqjA-D-95" value="- aluno: Usuario(Aluno)" style="text;html=1;strokeColor=none;fillColor=none;align=left;verticalAlign=top;spacingLeft=4;spacingRight=4;whiteSpace=wrap;overflow=hidden;rotatable=0;points=[[0,0.5],[1,0.5]];portConstraint=eastwest;" vertex="1" parent="w2l_0zOLGGP4IRcqjA-D-94">
          <mxGeometry y="26" width="210" height="26" as="geometry" />
        </mxCell>
        <mxCell id="0tEiglZcQvhpqYPTZPpU-32" value="- professor: Usuario(Professor)" style="text;html=1;strokeColor=none;fillColor=none;align=left;verticalAlign=top;spacingLeft=4;spacingRight=4;whiteSpace=wrap;overflow=hidden;rotatable=0;points=[[0,0.5],[1,0.5]];portConstraint=eastwest;" vertex="1" parent="w2l_0zOLGGP4IRcqjA-D-94">
          <mxGeometry y="52" width="210" height="26" as="geometry" />
        </mxCell>
        <mxCell id="w2l_0zOLGGP4IRcqjA-D-96" value="- atividade: AtividadeAgenda" style="text;html=1;strokeColor=none;fillColor=none;align=left;verticalAlign=top;spacingLeft=4;spacingRight=4;whiteSpace=wrap;overflow=hidden;rotatable=0;points=[[0,0.5],[1,0.5]];portConstraint=eastwest;" vertex="1" parent="w2l_0zOLGGP4IRcqjA-D-94">
          <mxGeometry y="78" width="210" height="26" as="geometry" />
        </mxCell>
        <mxCell id="yFq702atTAQf6OKBw3pj-55" value="- nota: int" style="text;html=1;strokeColor=none;fillColor=none;align=left;verticalAlign=top;spacingLeft=4;spacingRight=4;whiteSpace=wrap;overflow=hidden;rotatable=0;points=[[0,0.5],[1,0.5]];portConstraint=eastwest;" vertex="1" parent="w2l_0zOLGGP4IRcqjA-D-94">
          <mxGeometry y="104" width="210" height="26" as="geometry" />
        </mxCell>
        <mxCell id="yFq702atTAQf6OKBw3pj-54" value="- avaliadoEm: Date" style="text;html=1;strokeColor=none;fillColor=none;align=left;verticalAlign=top;spacingLeft=4;spacingRight=4;whiteSpace=wrap;overflow=hidden;rotatable=0;points=[[0,0.5],[1,0.5]];portConstraint=eastwest;" vertex="1" parent="w2l_0zOLGGP4IRcqjA-D-94">
          <mxGeometry y="130" width="210" height="26" as="geometry" />
        </mxCell>
        <mxCell id="w2l_0zOLGGP4IRcqjA-D-98" value="Frequencia" style="swimlane;html=1;fontStyle=0;childLayout=stackLayout;horizontal=1;startSize=26;fillColor=none;horizontalStack=0;resizeParent=1;resizeLast=0;collapsible=1;marginBottom=0;swimlaneFillColor=#ffffff;rounded=0;shadow=0;comic=0;labelBackgroundColor=none;strokeWidth=1;fontFamily=Verdana;fontSize=10;align=center;" vertex="1" parent="1">
          <mxGeometry x="1780" y="736" width="150" height="130" as="geometry" />
        </mxCell>
        <mxCell id="w2l_0zOLGGP4IRcqjA-D-102" value="- usuario: Usuario" style="text;html=1;strokeColor=none;fillColor=none;align=left;verticalAlign=top;spacingLeft=4;spacingRight=4;whiteSpace=wrap;overflow=hidden;rotatable=0;points=[[0,0.5],[1,0.5]];portConstraint=eastwest;" vertex="1" parent="w2l_0zOLGGP4IRcqjA-D-98">
          <mxGeometry y="26" width="150" height="26" as="geometry" />
        </mxCell>
        <mxCell id="0tEiglZcQvhpqYPTZPpU-45" value="- data: Date" style="text;html=1;strokeColor=none;fillColor=none;align=left;verticalAlign=top;spacingLeft=4;spacingRight=4;whiteSpace=wrap;overflow=hidden;rotatable=0;points=[[0,0.5],[1,0.5]];portConstraint=eastwest;" vertex="1" parent="w2l_0zOLGGP4IRcqjA-D-98">
          <mxGeometry y="52" width="150" height="26" as="geometry" />
        </mxCell>
        <mxCell id="w2l_0zOLGGP4IRcqjA-D-100" value="- entradaEm: String" style="text;html=1;strokeColor=none;fillColor=none;align=left;verticalAlign=top;spacingLeft=4;spacingRight=4;whiteSpace=wrap;overflow=hidden;rotatable=0;points=[[0,0.5],[1,0.5]];portConstraint=eastwest;" vertex="1" parent="w2l_0zOLGGP4IRcqjA-D-98">
          <mxGeometry y="78" width="150" height="26" as="geometry" />
        </mxCell>
        <mxCell id="w2l_0zOLGGP4IRcqjA-D-101" value="- saidaEm: String" style="text;html=1;strokeColor=none;fillColor=none;align=left;verticalAlign=top;spacingLeft=4;spacingRight=4;whiteSpace=wrap;overflow=hidden;rotatable=0;points=[[0,0.5],[1,0.5]];portConstraint=eastwest;" vertex="1" parent="w2l_0zOLGGP4IRcqjA-D-98">
          <mxGeometry y="104" width="150" height="26" as="geometry" />
        </mxCell>
        <mxCell id="0tEiglZcQvhpqYPTZPpU-23" style="edgeStyle=orthogonalEdgeStyle;rounded=0;orthogonalLoop=1;jettySize=auto;html=1;endArrow=none;endFill=0;" edge="1" parent="1" source="0tEiglZcQvhpqYPTZPpU-1" target="0tEiglZcQvhpqYPTZPpU-19">
          <mxGeometry relative="1" as="geometry" />
        </mxCell>
        <mxCell id="0tEiglZcQvhpqYPTZPpU-1" value="Transacao" style="swimlane;html=1;fontStyle=0;childLayout=stackLayout;horizontal=1;startSize=26;fillColor=none;horizontalStack=0;resizeParent=1;resizeLast=0;collapsible=1;marginBottom=0;swimlaneFillColor=#ffffff;rounded=0;shadow=0;comic=0;labelBackgroundColor=none;strokeWidth=1;fontFamily=Verdana;fontSize=10;align=center;" vertex="1" parent="1">
          <mxGeometry x="2090" y="54" width="280" height="136" as="geometry" />
        </mxCell>
        <mxCell id="0tEiglZcQvhpqYPTZPpU-2" value="- pessoa: Pessoa" style="text;html=1;strokeColor=none;fillColor=none;align=left;verticalAlign=top;spacingLeft=4;spacingRight=4;whiteSpace=wrap;overflow=hidden;rotatable=0;points=[[0,0.5],[1,0.5]];portConstraint=eastwest;" vertex="1" parent="0tEiglZcQvhpqYPTZPpU-1">
          <mxGeometry y="26" width="280" height="26" as="geometry" />
        </mxCell>
        <mxCell id="0tEiglZcQvhpqYPTZPpU-3" value="- produto: Produto" style="text;html=1;strokeColor=none;fillColor=none;align=left;verticalAlign=top;spacingLeft=4;spacingRight=4;whiteSpace=wrap;overflow=hidden;rotatable=0;points=[[0,0.5],[1,0.5]];portConstraint=eastwest;" vertex="1" parent="0tEiglZcQvhpqYPTZPpU-1">
          <mxGeometry y="52" width="280" height="26" as="geometry" />
        </mxCell>
        <mxCell id="0tEiglZcQvhpqYPTZPpU-7" value="- valorPago: float" style="text;html=1;strokeColor=none;fillColor=none;align=left;verticalAlign=top;spacingLeft=4;spacingRight=4;whiteSpace=wrap;overflow=hidden;rotatable=0;points=[[0,0.5],[1,0.5]];portConstraint=eastwest;" vertex="1" parent="0tEiglZcQvhpqYPTZPpU-1">
          <mxGeometry y="78" width="280" height="26" as="geometry" />
        </mxCell>
        <mxCell id="0tEiglZcQvhpqYPTZPpU-4" value="- status: String" style="text;html=1;strokeColor=none;fillColor=none;align=left;verticalAlign=top;spacingLeft=4;spacingRight=4;whiteSpace=wrap;overflow=hidden;rotatable=0;points=[[0,0.5],[1,0.5]];portConstraint=eastwest;" vertex="1" parent="0tEiglZcQvhpqYPTZPpU-1">
          <mxGeometry y="104" width="280" height="26" as="geometry" />
        </mxCell>
        <mxCell id="0tEiglZcQvhpqYPTZPpU-22" style="edgeStyle=orthogonalEdgeStyle;rounded=0;orthogonalLoop=1;jettySize=auto;html=1;endArrow=none;endFill=0;" edge="1" parent="1" source="0tEiglZcQvhpqYPTZPpU-17" target="w2l_0zOLGGP4IRcqjA-D-10">
          <mxGeometry relative="1" as="geometry" />
        </mxCell>
        <mxCell id="0tEiglZcQvhpqYPTZPpU-17" value="Produto" style="swimlane;html=1;fontStyle=0;childLayout=stackLayout;horizontal=1;startSize=26;fillColor=none;horizontalStack=0;resizeParent=1;resizeLast=0;collapsible=1;marginBottom=0;swimlaneFillColor=#ffffff;rounded=0;shadow=0;comic=0;labelBackgroundColor=none;strokeWidth=1;fontFamily=Verdana;fontSize=10;align=center;" vertex="1" parent="1">
          <mxGeometry x="2540" y="83" width="140" height="104" as="geometry" />
        </mxCell>
        <mxCell id="0tEiglZcQvhpqYPTZPpU-19" value="- plano: Plano" style="text;html=1;strokeColor=none;fillColor=none;align=left;verticalAlign=top;spacingLeft=4;spacingRight=4;whiteSpace=wrap;overflow=hidden;rotatable=0;points=[[0,0.5],[1,0.5]];portConstraint=eastwest;" vertex="1" parent="0tEiglZcQvhpqYPTZPpU-17">
          <mxGeometry y="26" width="140" height="26" as="geometry" />
        </mxCell>
        <mxCell id="0tEiglZcQvhpqYPTZPpU-20" value="- valor: float" style="text;html=1;strokeColor=none;fillColor=none;align=left;verticalAlign=top;spacingLeft=4;spacingRight=4;whiteSpace=wrap;overflow=hidden;rotatable=0;points=[[0,0.5],[1,0.5]];portConstraint=eastwest;" vertex="1" parent="0tEiglZcQvhpqYPTZPpU-17">
          <mxGeometry y="52" width="140" height="26" as="geometry" />
        </mxCell>
        <mxCell id="yFq702atTAQf6OKBw3pj-27" value="- duracao: String" style="text;html=1;strokeColor=none;fillColor=none;align=left;verticalAlign=top;spacingLeft=4;spacingRight=4;whiteSpace=wrap;overflow=hidden;rotatable=0;points=[[0,0.5],[1,0.5]];portConstraint=eastwest;" vertex="1" parent="0tEiglZcQvhpqYPTZPpU-17">
          <mxGeometry y="78" width="140" height="26" as="geometry" />
        </mxCell>
        <mxCell id="0tEiglZcQvhpqYPTZPpU-50" value="" style="triangle;whiteSpace=wrap;html=1;rotation=-90;fillColor=#000000;" vertex="1" parent="1">
          <mxGeometry x="2602.5" y="856.25" width="15" height="20" as="geometry" />
        </mxCell>
        <mxCell id="0tEiglZcQvhpqYPTZPpU-74" style="edgeStyle=orthogonalEdgeStyle;rounded=0;orthogonalLoop=1;jettySize=auto;html=1;endArrow=none;endFill=0;" edge="1" parent="1" source="0tEiglZcQvhpqYPTZPpU-54" target="0tEiglZcQvhpqYPTZPpU-60">
          <mxGeometry relative="1" as="geometry">
            <Array as="points">
              <mxPoint x="1810" y="250" />
              <mxPoint x="1810" y="250" />
            </Array>
          </mxGeometry>
        </mxCell>
        <mxCell id="0tEiglZcQvhpqYPTZPpU-54" value="Endereco" style="swimlane;html=1;fontStyle=0;childLayout=stackLayout;horizontal=1;startSize=26;fillColor=none;horizontalStack=0;resizeParent=1;resizeLast=0;collapsible=1;marginBottom=0;swimlaneFillColor=#ffffff;rounded=0;shadow=0;comic=0;labelBackgroundColor=none;strokeWidth=1;fontFamily=Verdana;fontSize=10;align=center;" vertex="1" parent="1">
          <mxGeometry x="1740" y="60" width="140" height="136.75" as="geometry" />
        </mxCell>
        <mxCell id="0tEiglZcQvhpqYPTZPpU-55" value="- rua: String" style="text;html=1;strokeColor=none;fillColor=none;align=left;verticalAlign=top;spacingLeft=4;spacingRight=4;whiteSpace=wrap;overflow=hidden;rotatable=0;points=[[0,0.5],[1,0.5]];portConstraint=eastwest;" vertex="1" parent="0tEiglZcQvhpqYPTZPpU-54">
          <mxGeometry y="26" width="140" height="26" as="geometry" />
        </mxCell>
        <mxCell id="0tEiglZcQvhpqYPTZPpU-56" value="- cidade: String" style="text;html=1;strokeColor=none;fillColor=none;align=left;verticalAlign=top;spacingLeft=4;spacingRight=4;whiteSpace=wrap;overflow=hidden;rotatable=0;points=[[0,0.5],[1,0.5]];portConstraint=eastwest;" vertex="1" parent="0tEiglZcQvhpqYPTZPpU-54">
          <mxGeometry y="52" width="140" height="26" as="geometry" />
        </mxCell>
        <mxCell id="0tEiglZcQvhpqYPTZPpU-57" value="- estado: String" style="text;html=1;strokeColor=none;fillColor=none;align=left;verticalAlign=top;spacingLeft=4;spacingRight=4;whiteSpace=wrap;overflow=hidden;rotatable=0;points=[[0,0.5],[1,0.5]];portConstraint=eastwest;" vertex="1" parent="0tEiglZcQvhpqYPTZPpU-54">
          <mxGeometry y="78" width="140" height="26" as="geometry" />
        </mxCell>
        <mxCell id="0tEiglZcQvhpqYPTZPpU-58" value="- cep: String" style="text;html=1;strokeColor=none;fillColor=none;align=left;verticalAlign=top;spacingLeft=4;spacingRight=4;whiteSpace=wrap;overflow=hidden;rotatable=0;points=[[0,0.5],[1,0.5]];portConstraint=eastwest;" vertex="1" parent="0tEiglZcQvhpqYPTZPpU-54">
          <mxGeometry y="104" width="140" height="26" as="geometry" />
        </mxCell>
        <mxCell id="0tEiglZcQvhpqYPTZPpU-75" style="edgeStyle=orthogonalEdgeStyle;rounded=0;orthogonalLoop=1;jettySize=auto;html=1;endArrow=none;endFill=0;" edge="1" parent="1" source="0tEiglZcQvhpqYPTZPpU-60" target="17acba5748e5396b-20">
          <mxGeometry relative="1" as="geometry">
            <Array as="points">
              <mxPoint x="1810" y="440" />
              <mxPoint x="1950" y="440" />
            </Array>
          </mxGeometry>
        </mxCell>
        <mxCell id="0tEiglZcQvhpqYPTZPpU-60" value="Pessoa" style="swimlane;html=1;fontStyle=0;childLayout=stackLayout;horizontal=1;startSize=26;fillColor=none;horizontalStack=0;resizeParent=1;resizeLast=0;collapsible=1;marginBottom=0;swimlaneFillColor=#ffffff;rounded=0;shadow=0;comic=0;labelBackgroundColor=none;strokeWidth=1;fontFamily=Verdana;fontSize=10;align=center;" vertex="1" parent="1">
          <mxGeometry x="1670" y="247" width="280" height="156" as="geometry" />
        </mxCell>
        <mxCell id="0tEiglZcQvhpqYPTZPpU-61" value="- nome: String" style="text;html=1;strokeColor=none;fillColor=none;align=left;verticalAlign=top;spacingLeft=4;spacingRight=4;whiteSpace=wrap;overflow=hidden;rotatable=0;points=[[0,0.5],[1,0.5]];portConstraint=eastwest;" vertex="1" parent="0tEiglZcQvhpqYPTZPpU-60">
          <mxGeometry y="26" width="280" height="26" as="geometry" />
        </mxCell>
        <mxCell id="0tEiglZcQvhpqYPTZPpU-97" value="- email: String" style="text;html=1;strokeColor=none;fillColor=none;align=left;verticalAlign=top;spacingLeft=4;spacingRight=4;whiteSpace=wrap;overflow=hidden;rotatable=0;points=[[0,0.5],[1,0.5]];portConstraint=eastwest;" vertex="1" parent="0tEiglZcQvhpqYPTZPpU-60">
          <mxGeometry y="52" width="280" height="26" as="geometry" />
        </mxCell>
        <mxCell id="0tEiglZcQvhpqYPTZPpU-98" value="- telefone: String" style="text;html=1;strokeColor=none;fillColor=none;align=left;verticalAlign=top;spacingLeft=4;spacingRight=4;whiteSpace=wrap;overflow=hidden;rotatable=0;points=[[0,0.5],[1,0.5]];portConstraint=eastwest;" vertex="1" parent="0tEiglZcQvhpqYPTZPpU-60">
          <mxGeometry y="78" width="280" height="26" as="geometry" />
        </mxCell>
        <mxCell id="0tEiglZcQvhpqYPTZPpU-76" value="- endereco: Endereco" style="text;html=1;strokeColor=none;fillColor=none;align=left;verticalAlign=top;spacingLeft=4;spacingRight=4;whiteSpace=wrap;overflow=hidden;rotatable=0;points=[[0,0.5],[1,0.5]];portConstraint=eastwest;" vertex="1" parent="0tEiglZcQvhpqYPTZPpU-60">
          <mxGeometry y="104" width="280" height="26" as="geometry" />
        </mxCell>
        <mxCell id="0tEiglZcQvhpqYPTZPpU-62" value="- tipo: Enum" style="text;html=1;strokeColor=none;fillColor=none;align=left;verticalAlign=top;spacingLeft=4;spacingRight=4;whiteSpace=wrap;overflow=hidden;rotatable=0;points=[[0,0.5],[1,0.5]];portConstraint=eastwest;" vertex="1" parent="0tEiglZcQvhpqYPTZPpU-60">
          <mxGeometry y="130" width="280" height="26" as="geometry" />
        </mxCell>
        <mxCell id="0tEiglZcQvhpqYPTZPpU-73" style="edgeStyle=orthogonalEdgeStyle;rounded=0;orthogonalLoop=1;jettySize=auto;html=1;endArrow=none;endFill=0;entryX=0;entryY=0.5;entryDx=0;entryDy=0;" edge="1" parent="1" source="0tEiglZcQvhpqYPTZPpU-66" target="0tEiglZcQvhpqYPTZPpU-80">
          <mxGeometry relative="1" as="geometry">
            <mxPoint x="1630" y="325" as="targetPoint" />
            <Array as="points">
              <mxPoint x="1550" y="325" />
            </Array>
          </mxGeometry>
        </mxCell>
        <mxCell id="0tEiglZcQvhpqYPTZPpU-66" value="Funcionario" style="swimlane;html=1;fontStyle=0;childLayout=stackLayout;horizontal=1;startSize=26;fillColor=none;horizontalStack=0;resizeParent=1;resizeLast=0;collapsible=1;marginBottom=0;swimlaneFillColor=#ffffff;rounded=0;shadow=0;comic=0;labelBackgroundColor=none;strokeWidth=1;fontFamily=Verdana;fontSize=10;align=center;" vertex="1" parent="1">
          <mxGeometry x="1410" y="60" width="280" height="160" as="geometry" />
        </mxCell>
        <mxCell id="0tEiglZcQvhpqYPTZPpU-67" value="- pessoa: Pessoa" style="text;html=1;strokeColor=none;fillColor=none;align=left;verticalAlign=top;spacingLeft=4;spacingRight=4;whiteSpace=wrap;overflow=hidden;rotatable=0;points=[[0,0.5],[1,0.5]];portConstraint=eastwest;" vertex="1" parent="0tEiglZcQvhpqYPTZPpU-66">
          <mxGeometry y="26" width="280" height="26" as="geometry" />
        </mxCell>
        <mxCell id="0tEiglZcQvhpqYPTZPpU-68" value="- dataAdmissao: Date" style="text;html=1;strokeColor=none;fillColor=none;align=left;verticalAlign=top;spacingLeft=4;spacingRight=4;whiteSpace=wrap;overflow=hidden;rotatable=0;points=[[0,0.5],[1,0.5]];portConstraint=eastwest;" vertex="1" parent="0tEiglZcQvhpqYPTZPpU-66">
          <mxGeometry y="52" width="280" height="26" as="geometry" />
        </mxCell>
        <mxCell id="0tEiglZcQvhpqYPTZPpU-69" value="- funcao: String" style="text;html=1;strokeColor=none;fillColor=none;align=left;verticalAlign=top;spacingLeft=4;spacingRight=4;whiteSpace=wrap;overflow=hidden;rotatable=0;points=[[0,0.5],[1,0.5]];portConstraint=eastwest;" vertex="1" parent="0tEiglZcQvhpqYPTZPpU-66">
          <mxGeometry y="78" width="280" height="26" as="geometry" />
        </mxCell>
        <mxCell id="0tEiglZcQvhpqYPTZPpU-70" value="- cargaHoraria: float" style="text;html=1;strokeColor=none;fillColor=none;align=left;verticalAlign=top;spacingLeft=4;spacingRight=4;whiteSpace=wrap;overflow=hidden;rotatable=0;points=[[0,0.5],[1,0.5]];portConstraint=eastwest;" vertex="1" parent="0tEiglZcQvhpqYPTZPpU-66">
          <mxGeometry y="104" width="280" height="26" as="geometry" />
        </mxCell>
        <mxCell id="0tEiglZcQvhpqYPTZPpU-71" value="- salario: float" style="text;html=1;strokeColor=none;fillColor=none;align=left;verticalAlign=top;spacingLeft=4;spacingRight=4;whiteSpace=wrap;overflow=hidden;rotatable=0;points=[[0,0.5],[1,0.5]];portConstraint=eastwest;" vertex="1" parent="0tEiglZcQvhpqYPTZPpU-66">
          <mxGeometry y="130" width="280" height="26" as="geometry" />
        </mxCell>
        <mxCell id="0tEiglZcQvhpqYPTZPpU-80" value="" style="triangle;whiteSpace=wrap;html=1;rotation=0;fillColor=#000000;" vertex="1" parent="1">
          <mxGeometry x="1655" y="315" width="15" height="20" as="geometry" />
        </mxCell>
        <mxCell id="xOJ4kkMhBxfgzkIFG1wt-17" style="edgeStyle=orthogonalEdgeStyle;rounded=0;orthogonalLoop=1;jettySize=auto;html=1;endArrow=none;endFill=0;" edge="1" parent="1" source="xOJ4kkMhBxfgzkIFG1wt-6" target="xOJ4kkMhBxfgzkIFG1wt-12">
          <mxGeometry relative="1" as="geometry" />
        </mxCell>
        <mxCell id="yFq702atTAQf6OKBw3pj-2" style="edgeStyle=orthogonalEdgeStyle;rounded=0;orthogonalLoop=1;jettySize=auto;html=1;endArrow=none;endFill=0;" edge="1" parent="1" source="xOJ4kkMhBxfgzkIFG1wt-6" target="17acba5748e5396b-20">
          <mxGeometry relative="1" as="geometry">
            <Array as="points">
              <mxPoint x="1620" y="394" />
              <mxPoint x="1620" y="550" />
            </Array>
          </mxGeometry>
        </mxCell>
        <mxCell id="xOJ4kkMhBxfgzkIFG1wt-6" value="Mural" style="swimlane;html=1;fontStyle=0;childLayout=stackLayout;horizontal=1;startSize=26;fillColor=none;horizontalStack=0;resizeParent=1;resizeLast=0;collapsible=1;marginBottom=0;swimlaneFillColor=#ffffff;rounded=0;shadow=0;comic=0;labelBackgroundColor=none;strokeWidth=1;fontFamily=Verdana;fontSize=10;align=center;swimlaneLine=1;glass=0;" vertex="1" parent="1">
          <mxGeometry x="1410" y="350" width="160" height="104" as="geometry" />
        </mxCell>
        <mxCell id="xOJ4kkMhBxfgzkIFG1wt-7" value="- usuario: Usuario" style="text;html=1;strokeColor=none;fillColor=none;align=left;verticalAlign=top;spacingLeft=4;spacingRight=4;whiteSpace=wrap;overflow=hidden;rotatable=0;points=[[0,0.5],[1,0.5]];portConstraint=eastwest;" vertex="1" parent="xOJ4kkMhBxfgzkIFG1wt-6">
          <mxGeometry y="26" width="160" height="26" as="geometry" />
        </mxCell>
        <mxCell id="xOJ4kkMhBxfgzkIFG1wt-8" value="- posts: List&amp;lt;Post&amp;gt;" style="text;html=1;strokeColor=none;fillColor=none;align=left;verticalAlign=top;spacingLeft=4;spacingRight=4;whiteSpace=wrap;overflow=hidden;rotatable=0;points=[[0,0.5],[1,0.5]];portConstraint=eastwest;" vertex="1" parent="xOJ4kkMhBxfgzkIFG1wt-6">
          <mxGeometry y="52" width="160" height="26" as="geometry" />
        </mxCell>
        <mxCell id="aCw208zm3CurW6850XvV-2" value="+publicar(post: Post)" style="text;html=1;strokeColor=none;fillColor=none;align=left;verticalAlign=top;spacingLeft=4;spacingRight=4;whiteSpace=wrap;overflow=hidden;rotatable=0;points=[[0,0.5],[1,0.5]];portConstraint=eastwest;" vertex="1" parent="xOJ4kkMhBxfgzkIFG1wt-6">
          <mxGeometry y="78" width="160" height="26" as="geometry" />
        </mxCell>
        <mxCell id="xOJ4kkMhBxfgzkIFG1wt-12" value="Post" style="swimlane;html=1;fontStyle=0;childLayout=stackLayout;horizontal=1;startSize=26;fillColor=none;horizontalStack=0;resizeParent=1;resizeLast=0;collapsible=1;marginBottom=0;swimlaneFillColor=#ffffff;rounded=0;shadow=0;comic=0;labelBackgroundColor=none;strokeWidth=1;fontFamily=Verdana;fontSize=10;align=center;" vertex="1" parent="1">
          <mxGeometry x="1410" y="520.75" width="160" height="137" as="geometry" />
        </mxCell>
        <mxCell id="xOJ4kkMhBxfgzkIFG1wt-13" value="- usuario: Usuario" style="text;html=1;strokeColor=none;fillColor=none;align=left;verticalAlign=top;spacingLeft=4;spacingRight=4;whiteSpace=wrap;overflow=hidden;rotatable=0;points=[[0,0.5],[1,0.5]];portConstraint=eastwest;" vertex="1" parent="xOJ4kkMhBxfgzkIFG1wt-12">
          <mxGeometry y="26" width="160" height="26" as="geometry" />
        </mxCell>
        <mxCell id="xOJ4kkMhBxfgzkIFG1wt-14" value="- texto: String" style="text;html=1;strokeColor=none;fillColor=none;align=left;verticalAlign=top;spacingLeft=4;spacingRight=4;whiteSpace=wrap;overflow=hidden;rotatable=0;points=[[0,0.5],[1,0.5]];portConstraint=eastwest;" vertex="1" parent="xOJ4kkMhBxfgzkIFG1wt-12">
          <mxGeometry y="52" width="160" height="26" as="geometry" />
        </mxCell>
        <mxCell id="xOJ4kkMhBxfgzkIFG1wt-16" value="- imagem: String" style="text;html=1;strokeColor=none;fillColor=none;align=left;verticalAlign=top;spacingLeft=4;spacingRight=4;whiteSpace=wrap;overflow=hidden;rotatable=0;points=[[0,0.5],[1,0.5]];portConstraint=eastwest;" vertex="1" parent="xOJ4kkMhBxfgzkIFG1wt-12">
          <mxGeometry y="78" width="160" height="26" as="geometry" />
        </mxCell>
        <mxCell id="xOJ4kkMhBxfgzkIFG1wt-15" value="- data: Date" style="text;html=1;strokeColor=none;fillColor=none;align=left;verticalAlign=top;spacingLeft=4;spacingRight=4;whiteSpace=wrap;overflow=hidden;rotatable=0;points=[[0,0.5],[1,0.5]];portConstraint=eastwest;" vertex="1" parent="xOJ4kkMhBxfgzkIFG1wt-12">
          <mxGeometry y="104" width="160" height="26" as="geometry" />
        </mxCell>
        <mxCell id="yFq702atTAQf6OKBw3pj-3" value="1" style="text;html=1;strokeColor=none;fillColor=none;align=center;verticalAlign=middle;whiteSpace=wrap;rounded=0;" vertex="1" parent="1">
          <mxGeometry x="1790" y="610" width="20" height="20" as="geometry" />
        </mxCell>
        <mxCell id="yFq702atTAQf6OKBw3pj-5" value="0 . *" style="text;html=1;strokeColor=none;fillColor=none;align=center;verticalAlign=middle;whiteSpace=wrap;rounded=0;" vertex="1" parent="1">
          <mxGeometry x="1680" y="716" width="30" height="20" as="geometry" />
        </mxCell>
        <mxCell id="yFq702atTAQf6OKBw3pj-6" value="1" style="text;html=1;strokeColor=none;fillColor=none;align=center;verticalAlign=middle;whiteSpace=wrap;rounded=0;" vertex="1" parent="1">
          <mxGeometry x="1910" y="683" width="20" height="20" as="geometry" />
        </mxCell>
        <mxCell id="yFq702atTAQf6OKBw3pj-7" value="0 . *" style="text;html=1;strokeColor=none;fillColor=none;align=center;verticalAlign=middle;whiteSpace=wrap;rounded=0;" vertex="1" parent="1">
          <mxGeometry x="1825" y="716" width="30" height="20" as="geometry" />
        </mxCell>
        <mxCell id="yFq702atTAQf6OKBw3pj-8" value="1" style="text;html=1;strokeColor=none;fillColor=none;align=center;verticalAlign=middle;whiteSpace=wrap;rounded=0;" vertex="1" parent="1">
          <mxGeometry x="1970" y="683" width="20" height="20" as="geometry" />
        </mxCell>
        <mxCell id="yFq702atTAQf6OKBw3pj-9" value="0 . *" style="text;html=1;strokeColor=none;fillColor=none;align=center;verticalAlign=middle;whiteSpace=wrap;rounded=0;" vertex="1" parent="1">
          <mxGeometry x="2075" y="716" width="30" height="20" as="geometry" />
        </mxCell>
        <mxCell id="yFq702atTAQf6OKBw3pj-10" value="1" style="text;html=1;strokeColor=none;fillColor=none;align=center;verticalAlign=middle;whiteSpace=wrap;rounded=0;" vertex="1" parent="1">
          <mxGeometry x="1790" y="530" width="20" height="20" as="geometry" />
        </mxCell>
        <mxCell id="yFq702atTAQf6OKBw3pj-12" value="1" style="text;html=1;strokeColor=none;fillColor=none;align=center;verticalAlign=middle;whiteSpace=wrap;rounded=0;" vertex="1" parent="1">
          <mxGeometry x="1790" y="558" width="20" height="20" as="geometry" />
        </mxCell>
        <mxCell id="yFq702atTAQf6OKBw3pj-13" value="1" style="text;html=1;strokeColor=none;fillColor=none;align=center;verticalAlign=middle;whiteSpace=wrap;rounded=0;" vertex="1" parent="1">
          <mxGeometry x="1490" y="455" width="20" height="20" as="geometry" />
        </mxCell>
        <mxCell id="yFq702atTAQf6OKBw3pj-14" value="0 . *" style="text;html=1;strokeColor=none;fillColor=none;align=center;verticalAlign=middle;whiteSpace=wrap;rounded=0;" vertex="1" parent="1">
          <mxGeometry x="1570" y="558" width="30" height="20" as="geometry" />
        </mxCell>
        <mxCell id="yFq702atTAQf6OKBw3pj-16" value="0 . *" style="text;html=1;strokeColor=none;fillColor=none;align=center;verticalAlign=middle;whiteSpace=wrap;rounded=0;" vertex="1" parent="1">
          <mxGeometry x="1490" y="500" width="30" height="20" as="geometry" />
        </mxCell>
        <mxCell id="yFq702atTAQf6OKBw3pj-17" value="1" style="text;html=1;strokeColor=none;fillColor=none;align=center;verticalAlign=middle;whiteSpace=wrap;rounded=0;" vertex="1" parent="1">
          <mxGeometry x="1810" y="403" width="20" height="20" as="geometry" />
        </mxCell>
        <mxCell id="yFq702atTAQf6OKBw3pj-19" value="1" style="text;html=1;strokeColor=none;fillColor=none;align=center;verticalAlign=middle;whiteSpace=wrap;rounded=0;" vertex="1" parent="1">
          <mxGeometry x="1810" y="225.75" width="20" height="20" as="geometry" />
        </mxCell>
        <mxCell id="yFq702atTAQf6OKBw3pj-20" value="1 . *" style="text;html=1;strokeColor=none;fillColor=none;align=center;verticalAlign=middle;whiteSpace=wrap;rounded=0;" vertex="1" parent="1">
          <mxGeometry x="1810" y="196.75" width="30" height="20" as="geometry" />
        </mxCell>
        <mxCell id="yFq702atTAQf6OKBw3pj-21" value="1" style="text;html=1;strokeColor=none;fillColor=none;align=center;verticalAlign=middle;whiteSpace=wrap;rounded=0;" vertex="1" parent="1">
          <mxGeometry x="1950" y="304" width="20" height="20" as="geometry" />
        </mxCell>
        <mxCell id="yFq702atTAQf6OKBw3pj-22" value="0 . *" style="text;html=1;strokeColor=none;fillColor=none;align=center;verticalAlign=middle;whiteSpace=wrap;rounded=0;" vertex="1" parent="1">
          <mxGeometry x="2060" y="98" width="30" height="20" as="geometry" />
        </mxCell>
        <mxCell id="yFq702atTAQf6OKBw3pj-23" value="1" style="text;html=1;strokeColor=none;fillColor=none;align=center;verticalAlign=middle;whiteSpace=wrap;rounded=0;" vertex="1" parent="1">
          <mxGeometry x="2370" y="98" width="20" height="20" as="geometry" />
        </mxCell>
        <mxCell id="yFq702atTAQf6OKBw3pj-24" value="1" style="text;html=1;strokeColor=none;fillColor=none;align=center;verticalAlign=middle;whiteSpace=wrap;rounded=0;" vertex="1" parent="1">
          <mxGeometry x="2520" y="98" width="20" height="20" as="geometry" />
        </mxCell>
        <mxCell id="yFq702atTAQf6OKBw3pj-25" value="0 . 1" style="text;html=1;strokeColor=none;fillColor=none;align=center;verticalAlign=middle;whiteSpace=wrap;rounded=0;" vertex="1" parent="1">
          <mxGeometry x="2580" y="183" width="30" height="20" as="geometry" />
        </mxCell>
        <mxCell id="yFq702atTAQf6OKBw3pj-26" value="1" style="text;html=1;strokeColor=none;fillColor=none;align=center;verticalAlign=middle;whiteSpace=wrap;rounded=0;" vertex="1" parent="1">
          <mxGeometry x="2590" y="248.75" width="20" height="20" as="geometry" />
        </mxCell>
        <mxCell id="yFq702atTAQf6OKBw3pj-28" value="1" style="text;html=1;strokeColor=none;fillColor=none;align=center;verticalAlign=middle;whiteSpace=wrap;rounded=0;" vertex="1" parent="1">
          <mxGeometry x="2450" y="304" width="20" height="20" as="geometry" />
        </mxCell>
        <mxCell id="yFq702atTAQf6OKBw3pj-29" value="0 . *" style="text;html=1;strokeColor=none;fillColor=none;align=center;verticalAlign=middle;whiteSpace=wrap;rounded=0;" vertex="1" parent="1">
          <mxGeometry x="2370" y="304" width="30" height="20" as="geometry" />
        </mxCell>
        <mxCell id="yFq702atTAQf6OKBw3pj-30" value="0 . 1" style="text;html=1;strokeColor=none;fillColor=none;align=center;verticalAlign=middle;whiteSpace=wrap;rounded=0;" vertex="1" parent="1">
          <mxGeometry x="2610" y="381.25" width="30" height="20" as="geometry" />
        </mxCell>
        <mxCell id="yFq702atTAQf6OKBw3pj-32" value="1 . *" style="text;html=1;strokeColor=none;fillColor=none;align=center;verticalAlign=middle;whiteSpace=wrap;rounded=0;" vertex="1" parent="1">
          <mxGeometry x="2610" y="745.75" width="30" height="20" as="geometry" />
        </mxCell>
        <mxCell id="yFq702atTAQf6OKBw3pj-34" value="1" style="text;html=1;strokeColor=none;fillColor=none;align=center;verticalAlign=middle;whiteSpace=wrap;rounded=0;" vertex="1" parent="1">
          <mxGeometry x="2520" y="787.75" width="20" height="20" as="geometry" />
        </mxCell>
        <mxCell id="yFq702atTAQf6OKBw3pj-35" value="0 . *" style="text;html=1;strokeColor=none;fillColor=none;align=center;verticalAlign=middle;whiteSpace=wrap;rounded=0;" vertex="1" parent="1">
          <mxGeometry x="2430" y="755" width="30" height="20" as="geometry" />
        </mxCell>
        <mxCell id="yFq702atTAQf6OKBw3pj-37" value="1" style="text;html=1;strokeColor=none;fillColor=none;align=center;verticalAlign=middle;whiteSpace=wrap;rounded=0;" vertex="1" parent="1">
          <mxGeometry x="2380" y="755.75" width="20" height="20" as="geometry" />
        </mxCell>
        <mxCell id="yFq702atTAQf6OKBw3pj-38" value="0 . 1" style="text;html=1;strokeColor=none;fillColor=none;align=center;verticalAlign=middle;whiteSpace=wrap;rounded=0;" vertex="1" parent="1">
          <mxGeometry x="2180" y="775" width="30" height="20" as="geometry" />
        </mxCell>
        <mxCell id="yFq702atTAQf6OKBw3pj-40" value="0 . *" style="text;html=1;strokeColor=none;fillColor=none;align=center;verticalAlign=middle;whiteSpace=wrap;rounded=0;" vertex="1" parent="1">
          <mxGeometry x="2430" y="604.75" width="30" height="20" as="geometry" />
        </mxCell>
        <mxCell id="yFq702atTAQf6OKBw3pj-41" value="1" style="text;html=1;strokeColor=none;fillColor=none;align=center;verticalAlign=middle;whiteSpace=wrap;rounded=0;" vertex="1" parent="1">
          <mxGeometry x="2090" y="580" width="20" height="20" as="geometry" />
        </mxCell>
        <mxCell id="yFq702atTAQf6OKBw3pj-43" value="1" style="text;html=1;strokeColor=none;fillColor=none;align=center;verticalAlign=middle;whiteSpace=wrap;rounded=0;" vertex="1" parent="1">
          <mxGeometry x="1680" y="869.5" width="20" height="20" as="geometry" />
        </mxCell>
        <mxCell id="yFq702atTAQf6OKBw3pj-44" value="1" style="text;html=1;strokeColor=none;fillColor=none;align=center;verticalAlign=middle;whiteSpace=wrap;rounded=0;" vertex="1" parent="1">
          <mxGeometry x="1850" y="958" width="20" height="20" as="geometry" />
        </mxCell>
        <mxCell id="yFq702atTAQf6OKBw3pj-45" value="1" style="text;html=1;strokeColor=none;fillColor=none;align=center;verticalAlign=middle;whiteSpace=wrap;rounded=0;" vertex="1" parent="1">
          <mxGeometry x="1550" y="958" width="20" height="20" as="geometry" />
        </mxCell>
        <mxCell id="yFq702atTAQf6OKBw3pj-46" value="0 . *" style="text;html=1;strokeColor=none;fillColor=none;align=center;verticalAlign=middle;whiteSpace=wrap;rounded=0;" vertex="1" parent="1">
          <mxGeometry x="1680" y="900" width="30" height="20" as="geometry" />
        </mxCell>
        <mxCell id="yFq702atTAQf6OKBw3pj-47" value="0 . *" style="text;html=1;strokeColor=none;fillColor=none;align=center;verticalAlign=middle;whiteSpace=wrap;rounded=0;" vertex="1" parent="1">
          <mxGeometry x="1750" y="958" width="30" height="20" as="geometry" />
        </mxCell>
        <mxCell id="yFq702atTAQf6OKBw3pj-48" value="0 . *" style="text;html=1;strokeColor=none;fillColor=none;align=center;verticalAlign=middle;whiteSpace=wrap;rounded=0;" vertex="1" parent="1">
          <mxGeometry x="1580" y="958" width="30" height="20" as="geometry" />
        </mxCell>
        <mxCell id="yFq702atTAQf6OKBw3pj-49" value="1" style="text;html=1;strokeColor=none;fillColor=none;align=center;verticalAlign=middle;whiteSpace=wrap;rounded=0;" vertex="1" parent="1">
          <mxGeometry x="2090" y="540" width="20" height="20" as="geometry" />
        </mxCell>
        <mxCell id="yFq702atTAQf6OKBw3pj-50" value="0 . 1" style="text;html=1;strokeColor=none;fillColor=none;align=center;verticalAlign=middle;whiteSpace=wrap;rounded=0;" vertex="1" parent="1">
          <mxGeometry x="2200" y="404.25" width="30" height="20" as="geometry" />
        </mxCell>
        <mxCell id="yFq702atTAQf6OKBw3pj-51" value="0 . 1" style="text;html=1;strokeColor=none;fillColor=none;align=center;verticalAlign=middle;whiteSpace=wrap;rounded=0;" vertex="1" parent="1">
          <mxGeometry x="2260" y="459.75" width="30" height="20" as="geometry" />
        </mxCell>
        <mxCell id="yFq702atTAQf6OKBw3pj-52" value="0 . 1" style="text;html=1;strokeColor=none;fillColor=none;align=center;verticalAlign=middle;whiteSpace=wrap;rounded=0;" vertex="1" parent="1">
          <mxGeometry x="1950" y="455" width="30" height="20" as="geometry" />
        </mxCell>
        <mxCell id="yFq702atTAQf6OKBw3pj-53" value="0 . 1" style="text;html=1;strokeColor=none;fillColor=none;align=center;verticalAlign=middle;whiteSpace=wrap;rounded=0;" vertex="1" parent="1">
          <mxGeometry x="1570" y="373" width="30" height="20" as="geometry" />
        </mxCell>
        <mxCell id="yFq702atTAQf6OKBw3pj-74" value="0 . 1" style="text;html=1;strokeColor=none;fillColor=none;align=center;verticalAlign=middle;whiteSpace=wrap;rounded=0;" vertex="1" parent="1">
          <mxGeometry x="2430" y="522.75" width="30" height="20" as="geometry" />
        </mxCell>
        <mxCell id="aCw208zm3CurW6850XvV-3" style="edgeStyle=orthogonalEdgeStyle;rounded=0;orthogonalLoop=1;jettySize=auto;html=1;exitX=0.5;exitY=1;exitDx=0;exitDy=0;" edge="1" parent="1" source="yFq702atTAQf6OKBw3pj-13" target="yFq702atTAQf6OKBw3pj-13">
          <mxGeometry relative="1" as="geometry" />
        </mxCell>
      </root>
    </mxGraphModel>
  </diagram>
</mxfile>
